<svg xmlns="http://www.w3.org/2000/svg" xmlns:xlink="http://www.w3.org/1999/xlink" viewBox="0 0 841.89 595.28"><defs><style>.cls-1,.cls-13,.cls-14,.cls-15,.cls-16,.cls-2,.cls-20,.cls-26,.cls-27,.cls-29,.cls-3,.cls-32,.cls-36,.cls-37,.cls-38,.cls-39,.cls-4,.cls-40,.cls-41,.cls-42,.cls-43,.cls-45,.cls-46,.cls-47,.cls-48,.cls-49,.cls-5,.cls-50,.cls-55,.cls-56,.cls-57,.cls-58,.cls-59,.cls-6,.cls-60,.cls-61,.cls-62,.cls-63,.cls-9{stroke:#231f20;}.cls-1,.cls-12,.cls-13,.cls-14,.cls-15,.cls-16,.cls-19,.cls-2,.cls-20,.cls-26,.cls-27,.cls-29,.cls-3,.cls-32,.cls-36,.cls-37,.cls-38,.cls-39,.cls-4,.cls-40,.cls-41,.cls-42,.cls-43,.cls-45,.cls-46,.cls-47,.cls-48,.cls-49,.cls-5,.cls-50,.cls-55,.cls-56,.cls-57,.cls-58,.cls-59,.cls-6,.cls-60,.cls-61,.cls-62,.cls-63,.cls-8,.cls-9{stroke-miterlimit:10;}.cls-1,.cls-40,.cls-45,.cls-48,.cls-50,.cls-61{stroke-width:5px;}.cls-1{fill:url(#linear-gradient);}.cls-2,.cls-3,.cls-36,.cls-37,.cls-4,.cls-46,.cls-47,.cls-5,.cls-58,.cls-59,.cls-6,.cls-60{stroke-width:4px;}.cls-2{fill:url(#linear-gradient-2);}.cls-3,.cls-61{fill:#e8eb8a;}.cls-4,.cls-43,.cls-57{fill:none;}.cls-5{fill:url(#linear-gradient-3);}.cls-6,.cls-63{fill:#57cbf5;}.cls-7{fill:#d0e8f3;}.cls-8{fill:#fff456;stroke:#dd588c;}.cls-41,.cls-42,.cls-43,.cls-49,.cls-55,.cls-8{stroke-width:3px;}.cls-20,.cls-32,.cls-9{font-size:14.04px;}.cls-20,.cls-25,.cls-26,.cls-32,.cls-38,.cls-39,.cls-45,.cls-62,.cls-9{fill:#231f20;}.cls-13,.cls-14,.cls-15,.cls-16,.cls-19,.cls-20,.cls-32,.cls-9{stroke-width:0.75px;}.cls-20,.cls-32,.cls-38,.cls-39,.cls-62,.cls-9{font-family:KozGoPr6N-Regular-83pv-RKSJ-H, Kozuka Gothic Pr6N;}.cls-9{letter-spacing:-0.07em;}.cls-10{letter-spacing:-0.1em;}.cls-11{letter-spacing:-0.02em;}.cls-12{fill:#e5a6cb;stroke:#f16b8f;}.cls-13{fill:#1b75bc;}.cls-14,.cls-29,.cls-55,.cls-64{fill:#fff;}.cls-15{fill:#bcbcbc;}.cls-16{fill:#00aeef;}.cls-17,.cls-37{fill:#f7941d;}.cls-18{fill:#ef4136;}.cls-19{fill:#5ca044;stroke:#1c4721;}.cls-20{letter-spacing:-0.03em;}.cls-21{letter-spacing:-0.16em;}.cls-22{letter-spacing:-0.14em;}.cls-23{letter-spacing:-0.01em;}.cls-24{fill:#e5de89;}.cls-26{stroke-width:0.5px;}.cls-27{fill:#1e382c;}.cls-28{fill:#384f43;}.cls-30{fill:#8dc63f;}.cls-31{fill:#006838;}.cls-33{letter-spacing:-0.15em;}.cls-34{letter-spacing:-0.2em;}.cls-35{letter-spacing:-0.02em;}.cls-36{fill:#be1e2d;}.cls-38{font-size:22.79px;}.cls-38,.cls-39,.cls-56,.cls-57{stroke-width:2px;}.cls-39{font-size:20.83px;}.cls-40,.cls-46{fill:#414042;}.cls-41{fill:#bcbec0;}.cls-42,.cls-60{fill:#b162a7;}.cls-44,.cls-49{fill:#e8e8e8;}.cls-47,.cls-48{fill:#f3e2d3;}.cls-50{fill:#68635f;}.cls-51{fill:#d3beaf;}.cls-52{fill:#f8fcfe;}.cls-53{fill:#898480;}.cls-54{fill:#ccb5a3;}.cls-56{fill:#ed1c24;}.cls-58{fill:url(#linear-gradient-4);}.cls-59{fill:url(#linear-gradient-5);}.cls-62{font-size:73.57px;}</style><linearGradient id="linear-gradient" x1="419.51" y1="0.84" x2="419.51" y2="596.12" gradientUnits="userSpaceOnUse"><stop offset="0" stop-color="#77151f"/><stop offset="0.16" stop-color="#7c181f"/><stop offset="0.35" stop-color="#891f21"/><stop offset="0.54" stop-color="#a02c22"/><stop offset="0.75" stop-color="#c03e25"/><stop offset="0.96" stop-color="#e85528"/><stop offset="0.99" stop-color="#f15a29"/></linearGradient><linearGradient id="linear-gradient-2" x1="418.49" y1="472.75" x2="418.49" y2="596.12" gradientUnits="userSpaceOnUse"><stop offset="0.07" stop-color="#424244"/><stop offset="0.1" stop-color="#414042"/><stop offset="0.72" stop-color="#6d6e71"/></linearGradient><linearGradient id="linear-gradient-3" x1="196.11" y1="438.79" x2="-36.42" y2="206.26" gradientUnits="userSpaceOnUse"><stop offset="0.08" stop-color="#867e6c"/><stop offset="0.5" stop-color="#c2b59b"/></linearGradient><linearGradient id="linear-gradient-4" x1="650.61" y1="373.02" x2="650.61" y2="576.23" gradientUnits="userSpaceOnUse"><stop offset="0.14" stop-color="#833c21"/><stop offset="0.88" stop-color="#8b5e3c"/></linearGradient><linearGradient id="linear-gradient-5" x1="650.61" y1="343.82" x2="650.61" y2="373.02" gradientUnits="userSpaceOnUse"><stop offset="0.09" stop-color="#58595b"/><stop offset="0.11" stop-color="#5a5b5d"/><stop offset="0.73" stop-color="#919396"/><stop offset="0.75" stop-color="#939598"/></linearGradient></defs><title>Artboard 24</title><g id="Layer_5" data-name="Layer 5"><rect class="cls-1" x="-1.43" y="0.84" width="841.89" height="595.28"/><rect class="cls-2" x="-2.46" y="472.75" width="841.89" height="123.37"/><polygon class="cls-3" points="391.41 261.51 351.87 301.71 295.95 301.71 256.4 261.51 256.4 204.66 295.95 164.46 351.87 164.46 391.41 204.66 391.41 261.51"/><polyline class="cls-4" points="295.95 164.46 295.95 204.06 256.4 204.66"/><polyline class="cls-4" points="256.4 261.51 295.95 261.51 295.95 301.71"/><polyline class="cls-4" points="351.87 301.71 351.87 261.51 391.41 261.51"/><polyline class="cls-4" points="351.87 164.46 351.87 204.66 391.41 204.66"/><polyline class="cls-4" points="256.4 215.27 295.95 215.27 295.95 251.44 256.4 251.44"/><polyline class="cls-4" points="391.41 215.27 351.87 215.27 351.87 251.44 391.41 251.44"/><polyline class="cls-4" points="304.35 301.71 304.35 261.51 343.5 261.51 343.5 301.71"/><polyline class="cls-4" points="304.35 164.46 304.35 204.66 343.5 204.66 343.5 166.7"/><line class="cls-4" x1="323.91" y1="164.46" x2="323.91" y2="301.71"/><polygon class="cls-4" points="278.61 182.09 278.61 281.61 371.64 281.61 369.21 182.09 278.61 182.09"/><rect class="cls-5" x="-2.46" y="172.3" width="164.6" height="300.45"/><circle class="cls-6" cx="70.95" cy="278" r="34.9"/><path class="cls-7" d="M48,269.91l13.17,18.7c1.84,2.61,6.18.11,4.32-2.52l-13.17-18.7c-1.84-2.61-6.18-.11-4.32,2.52Z"/><path class="cls-7" d="M52.75,263.13l8.74,12.4c1.84,2.61,6.18.11,4.32-2.52l-8.74-12.4c-1.84-2.61-6.18-.11-4.32,2.52Z"/><rect class="cls-3" x="482.6" y="27.42" width="106.07" height="158.07"/><rect class="cls-8" x="494.82" y="45.57" width="81.64" height="40.56" rx="8.21" ry="8.21"/><text class="cls-9" transform="translate(514.76 69.12)">ラ<tspan class="cls-10" x="13.06" y="0">イ</tspan><tspan class="cls-11" x="25.69" y="0">ス</tspan></text><path class="cls-12" d="M504.5,170.55c.15-.73,2.44-.08,4.14-1.41,2.27-1.77,1.83-5.79,2.23-5.77s-.25,4.5,2,6.14c1.22.87,2.66.5,2.8,1.09s-1.87,1.08-3.35,3-1.29,4.25-2,4.28-.63-2.33-2.51-4.47C506.25,171.56,504.36,171.21,504.5,170.55Z"/><path class="cls-12" d="M563,161.12c.17-.81,2.71-.09,4.58-1.56,2.51-2,2-6.41,2.48-6.4s-.27,5,2.27,6.81c1.35,1,3,.55,3.1,1.21s-2.07,1.2-3.72,3.33c-1.77,2.29-1.43,4.71-2.17,4.75s-.7-2.58-2.79-5C564.89,162.23,562.8,161.85,563,161.12Z"/><path class="cls-13" d="M575.28,129.26a65.3,65.3,0,0,1-10,25.72c-6.49,9.49-13.74,13.48-17.27,15.07H522c-2.17-.34-11.72-2.18-19-13.6-6.68-10.56-7-22.39-7-25.58Z"/><path class="cls-14" d="M501.71,130c.27-.61.12-9.08,5.14-10.7a14.26,14.26,0,0,1,8.79-.18s1.21-5.38,4.58-5.49,7.57.1,8.74,2.8c0,0,7.21-4.69,12.08,1,0,0,6.63-5.84,18.57,3.42,0,0,11.5-5.76,11.92,7.75"/><path class="cls-15" d="M508.83,130s-.19-7.17,5-6,9.45-2.23,9.45-2.23,3.15-1.4,6.11,1.83,9.26,2.12,9.26,2.12,3.89-2.52,6.3-1.51,5,5,5,5"/><path class="cls-16" d="M496.24,135.61l1.18,7.17a84.8,84.8,0,0,0,74.21,0l1.81-5.4a85,85,0,0,1-77.2-1.77Z"/><path class="cls-17" d="M540.79,117.45c-2.54-.3-4.69.46-4.81,1.7s1.84,2.5,4.38,2.8,4.69-.46,4.81-1.7S543.33,117.76,540.79,117.45Z"/><path class="cls-18" d="M540.79,117.45a7.29,7.29,0,0,0-2.75.18,3.74,3.74,0,0,0-1.22.58,1.27,1.27,0,0,0-.59,1,1.37,1.37,0,0,0,.57,1,4.32,4.32,0,0,0,1.09.64,9.13,9.13,0,0,0,2.54.65,8.88,8.88,0,0,0,2.61,0c.81-.14,1.76-.48,1.89-1.22a1.41,1.41,0,0,0-.43-1.09,4,4,0,0,0-1.06-.83A7.45,7.45,0,0,0,540.79,117.45Zm0,0a9.57,9.57,0,0,1,2.7.7,4.73,4.73,0,0,1,1.22.73,1.82,1.82,0,0,1,.71,1.35,1.79,1.79,0,0,1-.82,1.38,4.27,4.27,0,0,1-1.38.65,7.77,7.77,0,0,1-2.93.19,8,8,0,0,1-2.8-.87,4.6,4.6,0,0,1-1.19-.92,1.94,1.94,0,0,1-.58-1.48,1.67,1.67,0,0,1,.92-1.22,4.41,4.41,0,0,1,1.36-.45A9.29,9.29,0,0,1,540.79,117.45Z"/><path class="cls-19" d="M532.29,118.27s5-7.35,12.72-5.58C545,112.69,542.5,120.54,532.29,118.27Z"/><rect class="cls-3" x="712.54" y="28.6" width="106.07" height="158.07"/><rect class="cls-8" x="724.76" y="46.74" width="81.64" height="40.56" rx="8.21" ry="8.21"/><text class="cls-20" transform="translate(731.71 72.93)">つ<tspan class="cls-21" x="13.62" y="0">も</tspan><tspan class="cls-22" x="25.41" y="0">り</tspan><tspan class="cls-11" x="37.49" y="0">で</tspan><tspan class="cls-23" x="51.24" y="0">あ</tspan></text><path class="cls-12" d="M502.51,101.24c.24-1.16,3.86-.13,6.54-2.23,3.58-2.8,2.89-9.16,3.53-9.13s-.39,7.12,3.24,9.72c1.92,1.37,4.22.79,4.42,1.73.24,1.11-3,1.71-5.31,4.75-2.53,3.27-2,6.72-3.09,6.77s-1-3.68-4-7.07C505.28,102.83,502.29,102.28,502.51,101.24Z"/><ellipse class="cls-24" cx="759.04" cy="133.74" rx="21.93" ry="15.81"/><path class="cls-25" d="M780.35,133.74c-.51,10.45-12.26,15.19-21.31,15.19-8.67,0-21.31-4.74-21.31-15.19,0-10.13,12-14.95,20.53-15.17,9.25-.24,21.57,4.4,22.09,15.17,0,.8,1.29.81,1.25,0-1.07-22-45.12-22.07-45.12,0s44,22,45.12,0C781.64,132.94,780.39,132.94,780.35,133.74Z"/><path class="cls-24" d="M748.44,124c7.16-1,8.35-12.56,8.35-12.56S764.87,122.74,771,124"/><path class="cls-25" d="M748.61,124.61c5.87-1.19,8.22-7.84,8.81-13.17l-1.16.32c3.57,5,8.43,11.2,14.58,12.85a.63.63,0,0,0,.33-1.21c-5.75-1.55-10.47-7.62-13.83-12.28a.63.63,0,0,0-1.16.32c-.54,4.78-2.65,10.9-7.9,12-.79.16-.45,1.36.33,1.21Z"/><path class="cls-25" d="M748.76,129.89c7.07-3.5,11.71-10.84,8.64-18.61-.29-.74-1.5-.42-1.21.33,2.87,7.28-1.5,13.95-8.07,17.2-.72.36-.09,1.44.63,1.08Z"/><path class="cls-24" d="M768,125.36s-8.63-2.61-10.41-10.64"/><path class="cls-25" d="M768.12,124.76a14.78,14.78,0,0,1-10-10.21c-.19-.78-1.4-.45-1.21.33A16.05,16.05,0,0,0,767.79,126c.77.24,1.1-1,.33-1.21Z"/><path class="cls-25" d="M756.5,135.57c1.58-5.66,2.84-11.94,2-17.81-.11-.79-1.32-.46-1.21.33.8,5.64-.49,11.71-2,17.15a.63.63,0,0,0,1.21.33Z"/><circle class="cls-26" cx="766.1" cy="142.26" r="0.43"/><circle class="cls-26" cx="771" cy="139.05" r="0.43"/><ellipse class="cls-24" cx="776.63" cy="142.72" rx="21.93" ry="15.81"/><path class="cls-25" d="M797.94,142.72c-.51,10.45-12.26,15.19-21.31,15.19-8.67,0-21.31-4.74-21.31-15.19,0-10.13,12-14.95,20.53-15.17,9.25-.24,21.57,4.4,22.09,15.17,0,.8,1.29.81,1.25,0-1.07-22-45.12-22.07-45.12,0s44,22,45.12,0C799.23,141.92,798,141.92,797.94,142.72Z"/><path class="cls-24" d="M766,133c7.16-1,8.35-12.56,8.35-12.56s8.07,11.3,14.21,12.56"/><path class="cls-25" d="M766.2,133.59c5.87-1.19,8.22-7.84,8.81-13.17l-1.16.32c3.57,5,8.43,11.2,14.58,12.85a.63.63,0,0,0,.33-1.21c-5.75-1.55-10.47-7.62-13.83-12.28a.63.63,0,0,0-1.16.32c-.54,4.78-2.65,10.9-7.9,12-.79.16-.45,1.36.33,1.21Z"/><path class="cls-25" d="M766.35,138.87c7.07-3.5,11.71-10.84,8.64-18.61-.29-.74-1.5-.42-1.21.33,2.87,7.28-1.5,13.95-8.07,17.2-.72.36-.09,1.44.63,1.08Z"/><path class="cls-24" d="M785.54,134.34s-8.63-2.61-10.41-10.64"/><path class="cls-25" d="M785.71,133.74a14.78,14.78,0,0,1-10-10.21c-.19-.78-1.4-.45-1.21.33a16.05,16.05,0,0,0,10.85,11.08c.77.24,1.1-1,.33-1.21Z"/><path class="cls-25" d="M774.08,144.56c1.58-5.66,2.84-11.94,2-17.81-.11-.79-1.32-.46-1.21.33.8,5.64-.49,11.71-2,17.15a.63.63,0,0,0,1.21.33Z"/><circle class="cls-26" cx="783.69" cy="151.24" r="0.43"/><circle class="cls-26" cx="788.59" cy="148.03" r="0.43"/><ellipse class="cls-24" cx="746.69" cy="147.63" rx="21.93" ry="15.81"/><path class="cls-25" d="M768,147.63c-.51,10.45-12.26,15.19-21.31,15.19-8.67,0-21.31-4.74-21.31-15.19,0-10.13,12-14.95,20.53-15.17,9.25-.24,21.57,4.4,22.09,15.17,0,.8,1.29.81,1.25,0-1.07-22-45.12-22.07-45.12,0s44,22,45.12,0C769.29,146.83,768,146.83,768,147.63Z"/><path class="cls-24" d="M736.09,137.9c7.16-1,8.35-12.56,8.35-12.56s8.07,11.3,14.21,12.56"/><path class="cls-25" d="M736.26,138.5c5.87-1.19,8.22-7.84,8.81-13.17l-1.16.32c3.57,5,8.43,11.2,14.58,12.85a.63.63,0,0,0,.33-1.21c-5.75-1.55-10.47-7.62-13.83-12.28a.63.63,0,0,0-1.16.32c-.54,4.78-2.65,10.9-7.9,12-.79.16-.45,1.36.33,1.21Z"/><path class="cls-25" d="M736.41,143.78c7.07-3.5,11.71-10.84,8.64-18.61-.29-.74-1.5-.42-1.21.33,2.87,7.28-1.5,13.95-8.07,17.2-.72.36-.09,1.44.63,1.08Z"/><path class="cls-24" d="M755.6,139.26s-8.63-2.61-10.41-10.64"/><path class="cls-25" d="M755.77,138.65a14.78,14.78,0,0,1-10-10.21c-.19-.78-1.4-.45-1.21.33a16.05,16.05,0,0,0,10.85,11.08c.77.24,1.1-1,.33-1.21Z"/><path class="cls-25" d="M744.14,149.47c1.58-5.66,2.84-11.94,2-17.81-.11-.79-1.32-.46-1.21.33.8,5.64-.49,11.71-2,17.15a.63.63,0,0,0,1.21.33Z"/><circle class="cls-26" cx="753.75" cy="156.15" r="0.43"/><circle class="cls-26" cx="758.65" cy="152.94" r="0.43"/><path class="cls-25" d="M735.17,127.35c6.44-6.79-1.58-16.43,2.47-23.76.39-.7-.69-1.34-1.08-.63-4,7.28,3.81,17.1-2.28,23.51-.55.58.33,1.47.88.88Z"/><path class="cls-25" d="M749.44,113.75a7,7,0,0,0,2.64-3.88c1.07-4.13-3.17-9-.14-12.75.5-.62-.38-1.51-.88-.88-4,4.92,3.24,12.42-2.25,16.43-.64.47,0,1.55.63,1.08Z"/><path class="cls-25" d="M787.76,125.48c6.44-6.79-1.58-16.43,2.47-23.76.39-.7-.69-1.34-1.08-.63-4,7.28,3.81,17.1-2.28,23.51-.55.58.33,1.47.88.88Z"/><path class="cls-25" d="M770,115.51a5.9,5.9,0,0,0,2.68-3.4c.89-3.34-3.06-7.39-.18-10.27a.63.63,0,0,0-.88-.88c-4,4,3,10.35-2.25,13.48a.63.63,0,0,0,.63,1.08Z"/><path class="cls-12" d="M723.07,170.59c.24-1.16,3.86-.13,6.54-2.23,3.58-2.8,2.89-9.16,3.53-9.13s-.39,7.12,3.24,9.72c1.92,1.37,4.22.79,4.42,1.73.24,1.11-3,1.71-5.31,4.75-2.53,3.27-2,6.72-3.09,6.77s-1-3.68-4-7.07C725.83,172.18,722.85,171.63,723.07,170.59Z"/><path class="cls-12" d="M783.65,163.37c.17-.81,2.71-.09,4.58-1.56,2.51-2,2-6.41,2.48-6.4s-.27,5,2.27,6.81c1.35,1,3,.55,3.1,1.21s-2.07,1.2-3.72,3.33c-1.77,2.29-1.43,4.71-2.17,4.75s-.7-2.58-2.79-5C785.59,164.48,783.5,164.1,783.65,163.37Z"/><path class="cls-12" d="M720.71,118.69c.15-.73,2.44-.08,4.14-1.41,2.27-1.77,1.83-5.79,2.23-5.77s-.25,4.5,2,6.14c1.22.87,2.66.5,2.8,1.09s-1.87,1.08-3.35,3-1.29,4.25-2,4.28-.63-2.33-2.51-4.47C722.46,119.69,720.58,119.35,720.71,118.69Z"/><rect class="cls-3" x="598.13" y="28.6" width="106.07" height="158.07"/><path class="cls-27" d="M621.06,100.32a34.66,34.66,0,0,1,11.14-4.7c12.36-2.76,22.49,2.5,26.19,4.7v35.27s-20.78,12.93-37.33,1.57Z"/><path class="cls-28" d="M624,107.63v25.47s9.49,7.37,19.15,2.68,1.58-13.3,1.58-13.3-7.73-2.46-7.38-5.81S624,107.63,624,107.63Z"/><ellipse class="cls-29" cx="640.56" cy="102.52" rx="16.6" ry="6.16"/><path class="cls-17" d="M639,99.58c-5.07-.58-9.29.27-9.44,1.9s3.84,3.41,8.9,4,9.29-.27,9.44-1.9S644,100.15,639,99.58Z"/><path class="cls-18" d="M639,99.58a22.88,22.88,0,0,0-5.09,0,11.54,11.54,0,0,0-2.46.56,4.17,4.17,0,0,0-1.09.56,1.12,1.12,0,0,0-.55.86,1.3,1.3,0,0,0,.51.89,4.8,4.8,0,0,0,1,.67,13.15,13.15,0,0,0,2.3.9,28.53,28.53,0,0,0,4.91,1,28.2,28.2,0,0,0,5,.15,12.68,12.68,0,0,0,2.44-.38,4.1,4.1,0,0,0,1.09-.46,1.09,1.09,0,0,0,.6-.78,1.31,1.31,0,0,0-.44-1,4.86,4.86,0,0,0-1-.76,12.12,12.12,0,0,0-2.28-1.09A23.11,23.11,0,0,0,639,99.58Zm0,0a29,29,0,0,1,5,1,13.59,13.59,0,0,1,2.4.95,5.21,5.21,0,0,1,1.09.75,1.75,1.75,0,0,1,.66,1.27,1.62,1.62,0,0,1-.77,1.25,4.7,4.7,0,0,1-1.21.62,12,12,0,0,1-2.57.58,23.31,23.31,0,0,1-5.2,0,23.6,23.6,0,0,1-5.07-1.15,12.72,12.72,0,0,1-2.38-1.13,5.41,5.41,0,0,1-1.06-.84,1.81,1.81,0,0,1-.59-1.33,1.56,1.56,0,0,1,.82-1.17,4.51,4.51,0,0,1,1.22-.52,13,13,0,0,1,2.54-.4A28.53,28.53,0,0,1,639,99.58Z"/><path class="cls-30" d="M648.05,101.46c-2.78-.32-5.12.39-5.23,1.57s2.06,2.4,4.83,2.71,5.12-.39,5.23-1.57S650.83,101.78,648.05,101.46Z"/><path class="cls-31" d="M648.05,101.46a9.1,9.1,0,0,0-2.92.13,4.49,4.49,0,0,0-1.34.52,1.23,1.23,0,0,0-.71,1,1.38,1.38,0,0,0,.68,1,5.22,5.22,0,0,0,1.22.6,11.83,11.83,0,0,0,2.74.62,11.57,11.57,0,0,0,2.8,0,5,5,0,0,0,1.32-.33,1.19,1.19,0,0,0,.8-.8,1.4,1.4,0,0,0-.56-1.09,4.79,4.79,0,0,0-1.2-.79A9.26,9.26,0,0,0,648.05,101.46Zm0,0a12.26,12.26,0,0,1,2.88.65,5.62,5.62,0,0,1,1.34.68,1.79,1.79,0,0,1,.86,1.37,1.74,1.74,0,0,1-1,1.38,5,5,0,0,1-1.48.57,9.57,9.57,0,0,1-3.07.14,9.76,9.76,0,0,1-3-.82,5.37,5.37,0,0,1-1.32-.87,1.91,1.91,0,0,1-.74-1.51,1.62,1.62,0,0,1,1.07-1.21,5.29,5.29,0,0,1,1.46-.38A11.94,11.94,0,0,1,648.05,101.46Z"/><path class="cls-27" d="M645.17,102.29a34.66,34.66,0,0,1,11.14-4.7c12.36-2.76,22.49,2.5,26.19,4.7v35.27s-20.78,12.93-37.33,1.57Z"/><path class="cls-28" d="M648.07,109.6v25.47s9.49,7.37,19.15,2.68,1.58-13.3,1.58-13.3-7.73-2.46-7.38-5.81S648.07,109.6,648.07,109.6Z"/><ellipse class="cls-29" cx="664.67" cy="104.49" rx="16.6" ry="6.16"/><path class="cls-17" d="M663.06,101.55c-5.07-.58-9.29.27-9.44,1.9s3.84,3.41,8.9,4,9.29-.27,9.44-1.9S668.13,102.12,663.06,101.55Z"/><path class="cls-18" d="M663.06,101.55a22.88,22.88,0,0,0-5.09,0,11.55,11.55,0,0,0-2.46.56,4.17,4.17,0,0,0-1.09.56,1.12,1.12,0,0,0-.55.86,1.3,1.3,0,0,0,.51.89,4.8,4.8,0,0,0,1,.67,13.15,13.15,0,0,0,2.3.9,28.53,28.53,0,0,0,4.91,1,28.2,28.2,0,0,0,5,.15,12.68,12.68,0,0,0,2.44-.38,4.1,4.1,0,0,0,1.09-.46,1.09,1.09,0,0,0,.6-.78,1.31,1.31,0,0,0-.44-1,4.86,4.86,0,0,0-1-.76,12.12,12.12,0,0,0-2.28-1.09A23.11,23.11,0,0,0,663.06,101.55Zm0,0a29,29,0,0,1,5,1,13.59,13.59,0,0,1,2.4.95,5.21,5.21,0,0,1,1.09.75,1.75,1.75,0,0,1,.66,1.27,1.62,1.62,0,0,1-.77,1.25,4.7,4.7,0,0,1-1.21.62,12,12,0,0,1-2.57.58,23.31,23.31,0,0,1-5.2,0,23.6,23.6,0,0,1-5.07-1.15,12.72,12.72,0,0,1-2.38-1.13,5.41,5.41,0,0,1-1.06-.84,1.81,1.81,0,0,1-.59-1.33,1.56,1.56,0,0,1,.82-1.17,4.51,4.51,0,0,1,1.22-.52,13,13,0,0,1,2.54-.4A28.53,28.53,0,0,1,663.06,101.55Z"/><path class="cls-30" d="M672.16,103.43c-2.78-.32-5.12.39-5.23,1.57s2.06,2.4,4.83,2.71,5.12-.39,5.23-1.57S674.94,103.75,672.16,103.43Z"/><path class="cls-31" d="M672.16,103.43a9.1,9.1,0,0,0-2.92.13,4.49,4.49,0,0,0-1.34.52,1.23,1.23,0,0,0-.71,1,1.38,1.38,0,0,0,.68,1,5.22,5.22,0,0,0,1.22.6,11.83,11.83,0,0,0,2.74.62,11.57,11.57,0,0,0,2.8,0,5,5,0,0,0,1.32-.33,1.19,1.19,0,0,0,.8-.8,1.4,1.4,0,0,0-.56-1.09,4.79,4.79,0,0,0-1.2-.79A9.26,9.26,0,0,0,672.16,103.43Zm0,0a12.26,12.26,0,0,1,2.88.65,5.62,5.62,0,0,1,1.34.68,1.79,1.79,0,0,1,.86,1.37,1.74,1.74,0,0,1-1,1.38,5,5,0,0,1-1.48.57,9.57,9.57,0,0,1-3.07.14,9.76,9.76,0,0,1-3-.82,5.37,5.37,0,0,1-1.32-.87,1.91,1.91,0,0,1-.74-1.51,1.62,1.62,0,0,1,1.07-1.21,5.29,5.29,0,0,1,1.46-.38A11.94,11.94,0,0,1,672.16,103.43Z"/><path class="cls-27" d="M629.4,119.33a34.66,34.66,0,0,1,11.14-4.7c12.36-2.76,22.49,2.5,26.19,4.7v35.27S646,167.54,629.4,156.17Z"/><path class="cls-28" d="M632.3,126.65v25.47s9.49,7.37,19.15,2.68S653,141.5,653,141.5s-7.73-2.46-7.38-5.81S632.3,126.65,632.3,126.65Z"/><ellipse class="cls-29" cx="648.9" cy="121.53" rx="16.6" ry="6.16"/><path class="cls-17" d="M647.29,118.59c-5.07-.58-9.29.27-9.44,1.9s3.84,3.41,8.9,4,9.29-.27,9.44-1.9S652.36,119.17,647.29,118.59Z"/><path class="cls-18" d="M647.29,118.59a22.88,22.88,0,0,0-5.09,0,11.54,11.54,0,0,0-2.46.56,4.17,4.17,0,0,0-1.09.56,1.12,1.12,0,0,0-.55.86,1.3,1.3,0,0,0,.51.89,4.8,4.8,0,0,0,1,.67,13.15,13.15,0,0,0,2.3.9,28.53,28.53,0,0,0,4.91,1,28.2,28.2,0,0,0,5,.15,12.68,12.68,0,0,0,2.44-.38,4.1,4.1,0,0,0,1.09-.46,1.09,1.09,0,0,0,.6-.78,1.31,1.31,0,0,0-.44-1,4.86,4.86,0,0,0-1-.76,12.12,12.12,0,0,0-2.28-1.09A23.11,23.11,0,0,0,647.29,118.59Zm0,0a29,29,0,0,1,5,1,13.59,13.59,0,0,1,2.4.95,5.21,5.21,0,0,1,1.09.75,1.75,1.75,0,0,1,.66,1.27,1.62,1.62,0,0,1-.77,1.25,4.7,4.7,0,0,1-1.21.62,12,12,0,0,1-2.57.58,23.31,23.31,0,0,1-5.2,0,23.6,23.6,0,0,1-5.07-1.15,12.72,12.72,0,0,1-2.38-1.13,5.41,5.41,0,0,1-1.06-.84,1.81,1.81,0,0,1-.59-1.33,1.56,1.56,0,0,1,.82-1.17,4.51,4.51,0,0,1,1.22-.52,13,13,0,0,1,2.54-.4A28.53,28.53,0,0,1,647.29,118.59Z"/><path class="cls-30" d="M656.39,120.48c-2.78-.32-5.12.39-5.23,1.57s2.06,2.4,4.83,2.71,5.12-.39,5.23-1.57S659.17,120.79,656.39,120.48Z"/><path class="cls-31" d="M656.39,120.48a9.1,9.1,0,0,0-2.92.13,4.49,4.49,0,0,0-1.34.52,1.23,1.23,0,0,0-.71,1,1.38,1.38,0,0,0,.68,1,5.22,5.22,0,0,0,1.22.6,11.83,11.83,0,0,0,2.74.62,11.57,11.57,0,0,0,2.8,0,5,5,0,0,0,1.32-.33,1.19,1.19,0,0,0,.8-.8,1.4,1.4,0,0,0-.56-1.09,4.79,4.79,0,0,0-1.2-.79A9.26,9.26,0,0,0,656.39,120.48Zm0,0a12.26,12.26,0,0,1,2.88.65,5.62,5.62,0,0,1,1.34.68,1.79,1.79,0,0,1,.86,1.37,1.74,1.74,0,0,1-1,1.38,5,5,0,0,1-1.48.57,9.57,9.57,0,0,1-3.07.14,9.76,9.76,0,0,1-3-.82,5.37,5.37,0,0,1-1.32-.87,1.91,1.91,0,0,1-.74-1.51,1.62,1.62,0,0,1,1.07-1.21,5.29,5.29,0,0,1,1.46-.38A11.94,11.94,0,0,1,656.39,120.48Z"/><rect class="cls-8" x="610.35" y="44.08" width="81.64" height="40.56" rx="8.21" ry="8.21"/><text class="cls-32" transform="translate(625.47 70.27)"><tspan class="cls-33">ジ</tspan><tspan class="cls-34" x="11.93" y="0">ェ</tspan><tspan class="cls-35" x="23.16" y="0">ド</tspan><tspan x="36.92" y="0">ル</tspan></text><path class="cls-12" d="M610.43,156.24c.24-1.16,3.86-.13,6.54-2.23,3.58-2.8,2.89-9.16,3.53-9.13s-.39,7.12,3.24,9.72c1.92,1.37,4.22.79,4.42,1.73.24,1.11-3,1.71-5.31,4.75-2.53,3.27-2,6.72-3.09,6.77s-1-3.68-4-7.07C613.19,157.83,610.21,157.28,610.43,156.24Z"/><path class="cls-12" d="M679.24,99.32c.15-.73,2.44-.08,4.14-1.41,2.27-1.77,1.83-5.79,2.23-5.77s-.25,4.5,2,6.14c1.22.87,2.66.5,2.8,1.09s-1.87,1.08-3.35,3-1.29,4.25-2,4.28-.63-2.33-2.51-4.47C681,100.32,679.1,100,679.24,99.32Z"/><path class="cls-12" d="M670.36,153.18c.17-.81,2.71-.09,4.58-1.56,2.51-2,2-6.41,2.48-6.4s-.27,5,2.27,6.81c1.35,1,3,.55,3.1,1.21s-2.07,1.2-3.72,3.33c-1.77,2.29-1.43,4.71-2.17,4.75s-.7-2.58-2.79-5C672.3,154.29,670.21,153.91,670.36,153.18Z"/><path class="cls-36" d="M76.29,33.67,137.7,41s46,51.53-10.47,87.75l-61.41-7.33S17.22,77.26,76.29,33.67Z"/><path class="cls-37" d="M125.2,39.51,127,24.82,89.46,20.35,87.71,35c-47.88,37.09-10.47,87.75-10.47,87.75L76,133.52,113.44,138l1.28-10.73S159.6,90.47,125.2,39.51Z"/><line class="cls-37" x1="75.95" y1="133.52" x2="73.94" y2="150.38"/><line class="cls-37" x1="111.43" y1="154.85" x2="113.44" y2="137.99"/><line class="cls-37" x1="92.86" y1="152.64" x2="94.87" y2="135.77"/><line class="cls-37" x1="83.22" y1="142.94" x2="84.23" y2="134.5"/><line class="cls-37" x1="103.22" y1="136.77" x2="102.21" y2="145.2"/><line class="cls-37" x1="107.73" y1="26.58" x2="88.99" y2="24.34"/><line class="cls-37" x1="88.3" y1="30.11" x2="115.56" y2="33.37"/><path class="cls-37" d="M88.43,124.12s-25.21-51.46,8.65-88"/><path class="cls-37" d="M104.5,126s34-45.29,10.47-87.75"/><line class="cls-37" x1="108.38" y1="22.61" x2="109.92" y2="9.74"/><ellipse class="cls-37" cx="110.42" cy="5.56" rx="4.21" ry="4.62" transform="translate(91.81 114.54) rotate(-83.19)"/><path class="cls-37" d="M125.2,39.51,87.71,35Z"/><path class="cls-37" d="M114.72,127.26l-37.49-4.47Z"/><text class="cls-38" transform="translate(88.27 88.3) rotate(6.81) scale(1.1 1)">サ</text><line class="cls-37" x1="389.18" y1="22.54" x2="386.86" y2="10.92"/><ellipse class="cls-37" cx="386.1" cy="7.15" rx="4.22" ry="3.85" transform="translate(6.12 75.97) rotate(-11.33)"/><path class="cls-36" d="M364.46,41.28l55.43-11.1s54.64,31.66,15.87,79.2l-55.43,11.1S325.55,95.94,364.46,41.28Z"/><path class="cls-37" d="M408.6,32.44l-2.66-13.25L372.11,26l2.66,13.25c-31,45.84,15.87,79.2,15.87,79.2l1.94,9.69,33.83-6.78-1.94-9.69S453,66.91,408.6,32.44Z"/><line class="cls-37" x1="392.57" y1="128.1" x2="395.62" y2="143.32"/><line class="cls-37" x1="429.45" y1="136.55" x2="426.4" y2="121.32"/><line class="cls-37" x1="412.69" y1="139.9" x2="409.64" y2="124.68"/><line class="cls-37" x1="401.56" y1="134.22" x2="400.04" y2="126.61"/><line class="cls-37" x1="417.18" y1="123.17" x2="418.7" y2="130.78"/><line class="cls-37" x1="389.75" y1="26.18" x2="372.83" y2="29.56"/><line class="cls-37" x1="373.87" y1="34.77" x2="398.48" y2="29.84"/><path class="cls-37" d="M400.74,116.39S364.2,78.87,383.22,37.52"/><path class="cls-37" d="M415.24,113.49s16.69-49-15.87-79.2"/><path class="cls-37" d="M408.6,32.44l-33.83,6.78Z"/><path class="cls-37" d="M424.46,111.64l-33.83,6.78Z"/><text class="cls-39" transform="translate(390.38 85.33) rotate(-11.33) scale(1.1 1)">サ</text><rect class="cls-40" x="707.49" y="349.05" width="17.08" height="37.69" rx="7.75" ry="7.75" transform="translate(295.2 -318.36) rotate(31.29)"/><path class="cls-41" d="M715.81,351.81l41.51-68.3c3.2,1.26,6.41,7.26,9,13.66a163.7,163.7,0,0,1,5.81,17.41s-18.19,32.66-26,37.35l-13.72,5.45S719.92,345.05,715.81,351.81Z"/><ellipse class="cls-42" cx="760.22" cy="311.61" rx="3.45" ry="3.65" transform="matrix(0.52, -0.85, 0.85, 0.52, 99.11, 799.43)"/><path class="cls-43" d="M715.81,351.81s.22,16.08,10,16.49c0,0-15.1,2.24-18.44-2.54l12.5,12.32"/><path class="cls-44" d="M757,291.51l-32.9,54.14s7.28,2.06,8.13,4.94l23.92-32.33s-9.46-7.72,3.29-18.09Z"/><rect class="cls-45" x="659.52" y="388.81" width="17.64" height="70.64" rx="8.51" ry="8.51"/><path class="cls-46" d="M660.42,369.08c-2.39,10.39-7.63,35.32-8.51,57.55-.17,4.32.75,8.44,2.28,10.25,4.49,5.33,14.94,13.84,28.2-.57,1.57-1.71,2.55-5.87,2.39-10.28-.29-8.34-1.55-24.84-6-55.35-.58-3.95-2-6.56-3.67-6.56H663.79C662.41,364.11,661.13,366,660.42,369.08Z"/><rect class="cls-45" x="626.62" y="388.81" width="17.64" height="70.64" rx="8.51" ry="8.51"/><path class="cls-46" d="M627.52,369.08c-2.39,10.39-7.63,35.32-8.51,57.55-.17,4.32.75,8.44,2.28,10.25,4.49,5.33,14.94,13.84,28.2-.57,1.57-1.71,2.55-5.87,2.39-10.28-.29-8.34-1.55-24.84-6-55.35-.58-3.95-2-6.56-3.67-6.56H630.89C629.51,364.11,628.23,366,627.52,369.08Z"/><path class="cls-47" d="M591.61,386.44h0a8.06,8.06,0,0,1-4.34-11l24.08-49.18a9.07,9.07,0,0,1,11.7-4.07h0a8.06,8.06,0,0,1,4.34,11l-24.08,49.18A9.07,9.07,0,0,1,591.61,386.44Z"/><path class="cls-47" d="M716.83,382.36h0a8.06,8.06,0,0,0,4.34-11l-24.08-49.18a9.07,9.07,0,0,0-11.7-4.07h0a8.06,8.06,0,0,0-4.34,11l24.08,49.18A9.07,9.07,0,0,0,716.83,382.36Z"/><path class="cls-48" d="M629.11,317c-6.88,9.92-22,33.71-24.49,54.93-.49,4.13,2.17,8.06,6.55,9.78,12.93,5.09,43,13.21,81.12-.54,4.52-1.63,7.32-5.6,6.89-9.82-.82-8-4.45-23.71-17.4-52.83-1.68-3.77-5.87-6.26-10.55-6.26H638.8A11.76,11.76,0,0,0,629.11,317Z"/><path class="cls-49" d="M622.31,324.17a3,3,0,0,1,4.11-1.55c2.6,1.28,6.42,2.9,9,2.83a3,3,0,0,1,3,3.64c-.64,3.09.55,4.74.92,7.09.67,4.26,5.07,8.58,9.84,9.39,6.64,1.14,13.67-4.58,14.56-9.67.37-2.12,2-4.27,1.18-8.09a3,3,0,0,1,1.85-3.36L679,319.67a3,3,0,0,1,3.9,1.73c5.52,14.76,29.8,82.78,16.66,102.31a2.89,2.89,0,0,1-.75.75C695,427.1,667.61,444,605.86,430a3,3,0,0,1-2-1.62C601.06,422.57,592.93,396.31,622.31,324.17Z"/><path class="cls-50" d="M604.62,372s51,22.73,94.55-.58c0,0,6.06,44.43.34,52.32,0,0-30.86,20.42-93.65,6.3C605.86,430,592.69,432.27,604.62,372Z"/><path class="cls-47" d="M730.76,255.52c2.67,23.35-10.15,41.15-11.82,43.43-19.11,26-53.29,26.31-67.78,26.47-15.14.16-38,.41-57.16-16.72-1.46-1.31-24.77-22.8-22.44-53.17,2.8-36.52,41-65,78.42-65.5C689.6,189.48,726.74,220.37,730.76,255.52Z"/><path class="cls-25" d="M664.26,257.48q1.18,2.31,2.23,4.66c.72,1.56,1.38,3.14,2.06,4.72l-1.31-.58,5-2.41,5-2.3c3.37-1.47,6.73-2.95,10.14-4.3s6.85-2.67,10.31-3.9,7-2.38,10.55-3.33c-3.18,1.9-6.46,3.59-9.75,5.24s-6.63,3.17-10,4.67-6.76,2.88-10.16,4.27l-5.14,2L668,268.08l-1.05.38-.26-1c-.44-1.66-.9-3.31-1.3-5S664.59,259.18,664.26,257.48Z"/><path class="cls-25" d="M644.79,256.8c-.36,1.8-.75,3.6-1.2,5.37s-.91,3.55-1.37,5.32l-.26,1-1.07-.4-5.42-2-5.37-2.14-5.33-2.24-5.29-2.34q-5.27-2.38-10.45-5c-3.44-1.75-6.87-3.54-10.2-5.54,3.74,1.06,7.39,2.33,11,3.64s7.21,2.74,10.78,4.21l5.33,2.25,5.28,2.35,5.24,2.44,5.19,2.55-1.34.59c.7-1.69,1.39-3.38,2.14-5.05S644,258.46,644.79,256.8Z"/><line class="cls-51" x1="588.31" y1="239.07" x2="589.68" y2="304.19"/><path class="cls-44" d="M640.41,305.22s16.88-5.51,23.84,0"/><path class="cls-25" d="M640.41,305.22a18.73,18.73,0,0,1,5.65-3,24.54,24.54,0,0,1,6.25-1.31,18.81,18.81,0,0,1,6.51.59,9.08,9.08,0,0,1,5.43,3.76,21.5,21.5,0,0,0-5.9-.65c-1.91,0-3.81.15-5.76.29s-3.91.29-5.92.39A47.94,47.94,0,0,1,640.41,305.22Z"/><path class="cls-25" d="M650.8,289.69a10,10,0,0,0-3.19,1.34,11.1,11.1,0,0,0-1.33,1c-.37.41-.8.72-1.13,1.15a17.36,17.36,0,0,0-3.13,5.63,12.56,12.56,0,0,0-.51,1.59c-.16.54-.36,1.06-.48,1.62-.22,1.12-.58,2.21-.77,3.35-.11.57-.21,1.14-.34,1.71s-.28,1.15-.35,1.73c-.22,1.17-.43,2.34-.77,3.53a34.07,34.07,0,0,1-.7-3.59,31.55,31.55,0,0,1-.18-3.66,11.82,11.82,0,0,1,.11-1.84c.06-.61.14-1.23.22-1.84s.28-1.22.41-1.83a15.58,15.58,0,0,1,4.9-8.14,4.77,4.77,0,0,1,.81-.56c.28-.17.56-.35.85-.5a11.35,11.35,0,0,1,1.84-.67A7,7,0,0,1,650.8,289.69Z"/><path class="cls-25" d="M653.51,289.69a7,7,0,0,1,3.75,0,11.36,11.36,0,0,1,1.84.67c.29.15.56.33.85.5a4.77,4.77,0,0,1,.81.56,15.58,15.58,0,0,1,4.9,8.14c.13.61.34,1.21.41,1.83s.16,1.23.22,1.84a11.82,11.82,0,0,1,.11,1.84,31.56,31.56,0,0,1-.18,3.66,34.07,34.07,0,0,1-.7,3.59c-.35-1.19-.55-2.37-.77-3.53-.07-.59-.22-1.16-.35-1.73s-.24-1.14-.34-1.71c-.19-1.14-.55-2.23-.77-3.35-.12-.56-.32-1.08-.48-1.62a12.55,12.55,0,0,0-.51-1.59,17.36,17.36,0,0,0-3.13-5.63c-.33-.43-.76-.74-1.13-1.15a11.1,11.1,0,0,0-1.33-1A10,10,0,0,0,653.51,289.69Z"/><path class="cls-52" d="M624.92,328s-13,35.59-11.61,39.27,34.79,14.44,50.1,8.9c0,0,4-31,.84-30.18s-15.74,11.55-22.89,4.52S632.46,335,633,331.72C633,331.72,631.88,325.92,624.92,328Z"/><path class="cls-53" d="M609.44,380.28s-5.22,38.11-.77,42.95c0,0,31.73,11.41,46.43,5.8,0,0,9.57-23.33,1.21-39.72C656.31,389.31,627.44,380.08,609.44,380.28Z"/><path class="cls-54" d="M604,206.56a57.94,57.94,0,0,0-13.7,9.53c-14.55,13.64-17.85,31.15-18.76,38.13-.25,4.47-1.33,31.26,18.9,50.81a62.27,62.27,0,0,0,28.46,15.5,57.5,57.5,0,0,1-9.35-8.6c-14.86-17.08-15.3-38.42-15.6-52.94A130,130,0,0,1,604,206.56Z"/><path class="cls-55" d="M571.46,243.22s-4.27-12.56,0-17.58c0,0,70.83-35.79,154.35-5v15.62S632.49,203.66,571.46,243.22Z"/><circle class="cls-56" cx="651.23" cy="215.58" r="6.57" transform="translate(-8.13 26.32) rotate(-2.3)"/><path class="cls-57" d="M650.07,329.21a2.9,2.9,0,0,0-2,1.72,2.42,2.42,0,0,0,.19,2.25,1.83,1.83,0,0,0,2.06.7c.27-.1.55-.35.48-.64a.61.61,0,0,0-.47-.41,1.85,1.85,0,0,0-2.07,1.56,4.57,4.57,0,0,0,.61,2.79,20.29,20.29,0,0,0,1.82,3c.32.44.78.92,1.31.81"/><rect class="cls-58" x="500.48" y="373.02" width="300.24" height="203.21"/><rect class="cls-59" x="500.48" y="343.82" width="300.24" height="29.2"/><rect class="cls-60" x="574.98" y="398.99" width="151.25" height="151.25" rx="75.63" ry="75.63"/><rect class="cls-61" x="586.35" y="411.87" width="128.51" height="128.51" rx="64.25" ry="64.25"/><text></text><text class="cls-62" transform="translate(613.82 502.01)">陽</text><path class="cls-63" d="M592.44,237.36s-14.82,24.92,0,25.3C592.44,262.66,606.8,264.47,592.44,237.36Z"/><path class="cls-64" d="M591.22,248.83s-2.75,9.39,0,9.77S591.22,248.83,591.22,248.83Z"/><path class="cls-63" d="M723.1,243.8s-7,11.81,0,12C723.1,255.79,729.91,256.65,723.1,243.8Z"/><path class="cls-64" d="M722.52,249.23s-1.3,4.45,0,4.63S722.52,249.23,722.52,249.23Z"/><path class="cls-63" d="M716.08,256.57s-8.16,13.73,0,13.94C716.08,270.5,724,271.5,716.08,256.57Z"/><path class="cls-64" d="M715.41,262.88s-1.52,5.17,0,5.38S715.41,262.88,715.41,262.88Z"/></g></svg>
