<svg xmlns="http://www.w3.org/2000/svg" xmlns:xlink="http://www.w3.org/1999/xlink" viewBox="0 0 841.89 595.28"><defs><style>.cls-1,.cls-13,.cls-14,.cls-15,.cls-16,.cls-2,.cls-20,.cls-26,.cls-27,.cls-29,.cls-3,.cls-32,.cls-36,.cls-37,.cls-38,.cls-39,.cls-4,.cls-40,.cls-41,.cls-42,.cls-43,.cls-45,.cls-46,.cls-47,.cls-48,.cls-49,.cls-5,.cls-50,.cls-55,.cls-56,.cls-58,.cls-59,.cls-6,.cls-60,.cls-61,.cls-62,.cls-63,.cls-9{stroke:#231f20;}.cls-1,.cls-12,.cls-13,.cls-14,.cls-15,.cls-16,.cls-19,.cls-2,.cls-20,.cls-26,.cls-27,.cls-29,.cls-3,.cls-32,.cls-36,.cls-37,.cls-38,.cls-39,.cls-4,.cls-40,.cls-41,.cls-42,.cls-43,.cls-45,.cls-46,.cls-47,.cls-48,.cls-49,.cls-5,.cls-50,.cls-55,.cls-56,.cls-57,.cls-58,.cls-59,.cls-6,.cls-60,.cls-61,.cls-62,.cls-63,.cls-8,.cls-9{stroke-miterlimit:10;}.cls-1,.cls-40,.cls-45,.cls-48,.cls-50,.cls-62{stroke-width:5px;}.cls-1{fill:url(#linear-gradient);}.cls-2,.cls-3,.cls-36,.cls-37,.cls-4,.cls-46,.cls-47,.cls-5,.cls-59,.cls-6,.cls-60,.cls-61{stroke-width:4px;}.cls-2{fill:url(#linear-gradient-2);}.cls-3,.cls-62{fill:#e8eb8a;}.cls-4,.cls-43,.cls-57,.cls-58{fill:none;}.cls-5{fill:url(#linear-gradient-3);}.cls-6{fill:#57cbf5;}.cls-7{fill:#d0e8f3;}.cls-8{fill:#fff456;stroke:#dd588c;}.cls-41,.cls-42,.cls-43,.cls-49,.cls-55,.cls-57,.cls-8{stroke-width:3px;}.cls-20,.cls-32,.cls-9{font-size:14.04px;}.cls-20,.cls-25,.cls-26,.cls-32,.cls-38,.cls-39,.cls-45,.cls-63,.cls-9{fill:#231f20;}.cls-13,.cls-14,.cls-15,.cls-16,.cls-19,.cls-20,.cls-32,.cls-9{stroke-width:0.75px;}.cls-20,.cls-32,.cls-38,.cls-39,.cls-63,.cls-9{font-family:KozGoPr6N-Regular-83pv-RKSJ-H, Kozuka Gothic Pr6N;}.cls-9{letter-spacing:-0.07em;}.cls-10{letter-spacing:-0.1em;}.cls-11{letter-spacing:-0.02em;}.cls-12{fill:#e5a6cb;stroke:#f16b8f;}.cls-13{fill:#1b75bc;}.cls-14,.cls-29,.cls-55{fill:#fff;}.cls-15{fill:#bcbcbc;}.cls-16{fill:#00aeef;}.cls-17,.cls-37{fill:#f7941d;}.cls-18{fill:#ef4136;}.cls-19{fill:#5ca044;stroke:#1c4721;}.cls-20{letter-spacing:-0.03em;}.cls-21{letter-spacing:-0.16em;}.cls-22{letter-spacing:-0.14em;}.cls-23{letter-spacing:-0.01em;}.cls-24{fill:#e5de89;}.cls-26{stroke-width:0.5px;}.cls-27{fill:#1e382c;}.cls-28{fill:#384f43;}.cls-30{fill:#8dc63f;}.cls-31{fill:#006838;}.cls-33{letter-spacing:-0.15em;}.cls-34{letter-spacing:-0.2em;}.cls-35{letter-spacing:-0.02em;}.cls-36{fill:#be1e2d;}.cls-38{font-size:22.79px;}.cls-38,.cls-39,.cls-56,.cls-58{stroke-width:2px;}.cls-39{font-size:20.83px;}.cls-40,.cls-46{fill:#414042;}.cls-41{fill:#bcbec0;}.cls-42,.cls-61{fill:#b162a7;}.cls-44,.cls-49{fill:#e8e8e8;}.cls-47,.cls-48{fill:#f3e2d3;}.cls-50{fill:#68635f;}.cls-51{fill:#d3beaf;}.cls-52{fill:#f8fcfe;}.cls-53{fill:#898480;}.cls-54{fill:#ccb5a3;}.cls-56{fill:#ed1c24;}.cls-57{stroke:#ed1c24;}.cls-59{fill:url(#linear-gradient-4);}.cls-60{fill:url(#linear-gradient-5);}.cls-63{font-size:73.57px;}</style><linearGradient id="linear-gradient" x1="421.97" x2="421.97" y2="595.28" gradientUnits="userSpaceOnUse"><stop offset="0" stop-color="#77151f"/><stop offset="0.16" stop-color="#7c181f"/><stop offset="0.35" stop-color="#891f21"/><stop offset="0.54" stop-color="#a02c22"/><stop offset="0.75" stop-color="#c03e25"/><stop offset="0.96" stop-color="#e85528"/><stop offset="0.99" stop-color="#f15a29"/></linearGradient><linearGradient id="linear-gradient-2" x1="420.95" y1="471.91" x2="420.95" y2="595.28" gradientUnits="userSpaceOnUse"><stop offset="0.07" stop-color="#424244"/><stop offset="0.1" stop-color="#414042"/><stop offset="0.72" stop-color="#6d6e71"/></linearGradient><linearGradient id="linear-gradient-3" x1="198.56" y1="437.94" x2="-33.96" y2="205.42" gradientUnits="userSpaceOnUse"><stop offset="0.08" stop-color="#867e6c"/><stop offset="0.5" stop-color="#c2b59b"/></linearGradient><linearGradient id="linear-gradient-4" x1="653.06" y1="372.17" x2="653.06" y2="575.39" gradientUnits="userSpaceOnUse"><stop offset="0.14" stop-color="#833c21"/><stop offset="0.88" stop-color="#8b5e3c"/></linearGradient><linearGradient id="linear-gradient-5" x1="653.06" y1="342.98" x2="653.06" y2="372.17" gradientUnits="userSpaceOnUse"><stop offset="0.09" stop-color="#58595b"/><stop offset="0.11" stop-color="#5a5b5d"/><stop offset="0.73" stop-color="#919396"/><stop offset="0.75" stop-color="#939598"/></linearGradient></defs><title>restaurant</title><g id="Layer_1" data-name="Layer 1"><rect class="cls-1" x="1.03" width="841.89" height="595.28"/></g><g id="Layer_2" data-name="Layer 2"><rect class="cls-2" y="471.91" width="841.89" height="123.37"/></g><g id="Layer_6" data-name="Layer 6"><polygon class="cls-3" points="393.87 260.67 354.33 300.87 298.4 300.87 258.86 260.67 258.86 203.82 298.4 163.62 354.33 163.62 393.87 203.82 393.87 260.67"/></g><g id="Layer_7" data-name="Layer 7"><polyline class="cls-4" points="298.4 163.62 298.4 203.22 258.86 203.82"/><polyline class="cls-4" points="258.86 260.67 298.4 260.67 298.4 300.87"/><polyline class="cls-4" points="354.33 300.87 354.33 260.67 393.87 260.67"/><polyline class="cls-4" points="354.33 163.62 354.33 203.82 393.87 203.82"/><polyline class="cls-4" points="258.86 214.43 298.4 214.43 298.4 250.6 258.86 250.6"/><polyline class="cls-4" points="393.87 214.43 354.33 214.43 354.33 250.6 393.87 250.6"/><polyline class="cls-4" points="306.81 300.87 306.81 260.67 345.96 260.67 345.96 300.87"/><polyline class="cls-4" points="306.81 163.62 306.81 203.82 345.96 203.82 345.96 165.86"/><line class="cls-4" x1="326.36" y1="163.62" x2="326.36" y2="300.87"/><polygon class="cls-4" points="281.06 181.25 281.06 280.77 374.1 280.77 371.67 181.25 281.06 181.25"/></g><g id="Layer_9" data-name="Layer 9"><rect class="cls-5" y="171.46" width="164.6" height="300.45"/><circle class="cls-6" cx="73.41" cy="277.16" r="34.9"/><path class="cls-7" d="M50.45,269.07l13.17,18.7c1.84,2.61,6.18.11,4.32-2.52l-13.17-18.7c-1.84-2.61-6.18-.11-4.32,2.52Z"/><path class="cls-7" d="M55.21,262.29l8.74,12.4c1.84,2.61,6.18.11,4.32-2.52l-8.74-12.4c-1.84-2.61-6.18-.11-4.32,2.52Z"/></g><g id="Layer_10" data-name="Layer 10"><rect class="cls-3" x="485.06" y="26.58" width="106.07" height="158.07"/><rect class="cls-8" x="497.28" y="44.73" width="81.64" height="40.56" rx="8.21" ry="8.21"/><text class="cls-9" transform="translate(517.22 68.28)">ラ<tspan class="cls-10" x="13.06" y="0">イ</tspan><tspan class="cls-11" x="25.69" y="0">ス</tspan></text><path class="cls-12" d="M507,169.71c.15-.73,2.44-.08,4.14-1.41,2.27-1.77,1.83-5.79,2.23-5.77s-.25,4.5,2,6.14c1.22.87,2.66.5,2.8,1.09s-1.87,1.08-3.35,3-1.29,4.25-2,4.28-.63-2.33-2.51-4.47C508.7,170.72,506.82,170.37,507,169.71Z"/><path class="cls-12" d="M565.41,160.27c.17-.81,2.71-.09,4.58-1.56,2.51-2,2-6.41,2.48-6.4s-.27,5,2.27,6.81c1.35,1,3,.55,3.1,1.21s-2.07,1.2-3.72,3.33c-1.77,2.29-1.43,4.71-2.17,4.75s-.7-2.58-2.79-5C567.35,161.39,565.26,161,565.41,160.27Z"/><path class="cls-13" d="M577.73,128.42a65.3,65.3,0,0,1-10,25.72c-6.49,9.49-13.74,13.48-17.27,15.07H524.44c-2.17-.34-11.72-2.18-19-13.6-6.68-10.56-7-22.39-7-25.58Z"/><path class="cls-14" d="M504.16,129.14c.27-.61.12-9.08,5.14-10.7a14.26,14.26,0,0,1,8.79-.18s1.21-5.38,4.58-5.49,7.57.1,8.74,2.8c0,0,7.21-4.69,12.08,1,0,0,6.63-5.84,18.57,3.42,0,0,11.5-5.76,11.92,7.75"/><path class="cls-15" d="M511.29,129.14s-.19-7.17,5-6,9.45-2.23,9.45-2.23,3.15-1.4,6.11,1.83,9.26,2.12,9.26,2.12,3.89-2.52,6.3-1.51,5,5,5,5"/><path class="cls-16" d="M498.7,134.76l1.18,7.17a84.8,84.8,0,0,0,74.21,0l1.81-5.4a85,85,0,0,1-77.2-1.77Z"/><path class="cls-17" d="M543.24,116.61c-2.54-.3-4.69.46-4.81,1.7s1.84,2.5,4.38,2.8,4.69-.46,4.81-1.7S545.78,116.92,543.24,116.61Z"/><path class="cls-18" d="M543.24,116.61a7.29,7.29,0,0,0-2.75.18,3.74,3.74,0,0,0-1.22.58,1.27,1.27,0,0,0-.59,1,1.37,1.37,0,0,0,.57,1,4.32,4.32,0,0,0,1.09.64,9.13,9.13,0,0,0,2.54.65,8.88,8.88,0,0,0,2.61,0c.81-.14,1.76-.48,1.89-1.22a1.41,1.41,0,0,0-.43-1.09,4,4,0,0,0-1.06-.83A7.45,7.45,0,0,0,543.24,116.61Zm0,0a9.57,9.57,0,0,1,2.7.7,4.73,4.73,0,0,1,1.22.73,1.82,1.82,0,0,1,.71,1.35,1.79,1.79,0,0,1-.82,1.38,4.27,4.27,0,0,1-1.38.65,7.77,7.77,0,0,1-2.93.19,8,8,0,0,1-2.8-.87,4.6,4.6,0,0,1-1.19-.92,1.94,1.94,0,0,1-.58-1.48,1.67,1.67,0,0,1,.92-1.22,4.41,4.41,0,0,1,1.36-.45A9.29,9.29,0,0,1,543.24,116.61Z"/><path class="cls-19" d="M534.75,117.43s5-7.35,12.72-5.58C547.47,111.85,545,119.7,534.75,117.43Z"/><rect class="cls-3" x="714.99" y="27.75" width="106.07" height="158.07"/><rect class="cls-8" x="727.21" y="45.9" width="81.64" height="40.56" rx="8.21" ry="8.21"/><text class="cls-20" transform="translate(734.17 72.09)">つ<tspan class="cls-21" x="13.62" y="0">も</tspan><tspan class="cls-22" x="25.41" y="0">り</tspan><tspan class="cls-11" x="37.49" y="0">で</tspan><tspan class="cls-23" x="51.24" y="0">あ</tspan></text><path class="cls-12" d="M505,100.4c.24-1.16,3.86-.13,6.54-2.23C515.1,95.36,514.41,89,515,89s-.39,7.12,3.24,9.72c1.92,1.37,4.22.79,4.42,1.73.24,1.11-3,1.71-5.31,4.75-2.53,3.27-2,6.72-3.09,6.77s-1-3.68-4-7.07C507.74,102,504.75,101.44,505,100.4Z"/><ellipse class="cls-24" cx="761.5" cy="132.9" rx="21.93" ry="15.81"/><path class="cls-25" d="M782.81,132.9c-.51,10.45-12.26,15.19-21.31,15.19-8.67,0-21.31-4.74-21.31-15.19,0-10.13,12-14.95,20.53-15.17,9.25-.24,21.57,4.4,22.09,15.17,0,.8,1.29.81,1.25,0-1.07-22-45.12-22.07-45.12,0s44,22,45.12,0C784.1,132.09,782.85,132.1,782.81,132.9Z"/><path class="cls-24" d="M750.9,123.17c7.16-1,8.35-12.56,8.35-12.56s8.07,11.3,14.21,12.56"/><path class="cls-25" d="M751.07,123.77c5.87-1.19,8.22-7.84,8.81-13.17l-1.16.32c3.57,5,8.43,11.2,14.58,12.85a.63.63,0,0,0,.33-1.21c-5.75-1.55-10.47-7.62-13.83-12.28a.63.63,0,0,0-1.16.32c-.54,4.78-2.65,10.9-7.9,12-.79.16-.45,1.36.33,1.21Z"/><path class="cls-25" d="M751.21,129c7.07-3.5,11.71-10.84,8.64-18.61-.29-.74-1.5-.42-1.21.33,2.87,7.28-1.5,13.95-8.07,17.2-.72.36-.09,1.44.63,1.08Z"/><path class="cls-24" d="M770.41,124.52s-8.63-2.61-10.41-10.64"/><path class="cls-25" d="M770.58,123.92a14.78,14.78,0,0,1-10-10.21c-.19-.78-1.4-.45-1.21.33a16.05,16.05,0,0,0,10.85,11.08c.77.24,1.1-1,.33-1.21Z"/><path class="cls-25" d="M759,134.73c1.58-5.66,2.84-11.94,2-17.81-.11-.79-1.32-.46-1.21.33.8,5.64-.49,11.71-2,17.15a.63.63,0,0,0,1.21.33Z"/><circle class="cls-26" cx="768.56" cy="141.42" r="0.43"/><circle class="cls-26" cx="773.46" cy="138.21" r="0.43"/><ellipse class="cls-24" cx="779.09" cy="141.88" rx="21.93" ry="15.81"/><path class="cls-25" d="M800.4,141.88c-.51,10.45-12.26,15.19-21.31,15.19-8.67,0-21.31-4.74-21.31-15.19,0-10.13,12-14.95,20.53-15.17,9.25-.24,21.57,4.4,22.09,15.17,0,.8,1.29.81,1.25,0-1.07-22-45.12-22.07-45.12,0s44,22,45.12,0C801.68,141.08,800.43,141.08,800.4,141.88Z"/><path class="cls-24" d="M768.49,132.15c7.16-1,8.35-12.56,8.35-12.56s8.07,11.3,14.21,12.56"/><path class="cls-25" d="M768.65,132.75c5.87-1.19,8.22-7.84,8.81-13.17l-1.16.32c3.57,5,8.43,11.2,14.58,12.85a.63.63,0,0,0,.33-1.21c-5.75-1.55-10.47-7.62-13.83-12.28a.63.63,0,0,0-1.16.32c-.54,4.78-2.65,10.9-7.9,12-.79.16-.45,1.36.33,1.21Z"/><path class="cls-25" d="M768.8,138c7.07-3.5,11.71-10.84,8.64-18.61-.29-.74-1.5-.42-1.21.33,2.87,7.28-1.5,13.95-8.07,17.2-.72.36-.09,1.44.63,1.08Z"/><path class="cls-24" d="M788,133.5s-8.63-2.61-10.41-10.64"/><path class="cls-25" d="M788.17,132.9a14.78,14.78,0,0,1-10-10.21c-.19-.78-1.4-.45-1.21.33a16.05,16.05,0,0,0,10.85,11.08c.77.24,1.1-1,.33-1.21Z"/><path class="cls-25" d="M776.54,143.71c1.58-5.66,2.84-11.94,2-17.81-.11-.79-1.32-.46-1.21.33.8,5.64-.49,11.71-2,17.15a.63.63,0,0,0,1.21.33Z"/><circle class="cls-26" cx="786.15" cy="150.4" r="0.43"/><circle class="cls-26" cx="791.05" cy="147.19" r="0.43"/><ellipse class="cls-24" cx="749.15" cy="146.79" rx="21.93" ry="15.81"/><path class="cls-25" d="M770.46,146.79C769.95,157.24,758.2,162,749.15,162c-8.67,0-21.31-4.74-21.31-15.19,0-10.13,12-14.95,20.53-15.17,9.25-.24,21.57,4.4,22.09,15.17,0,.8,1.29.81,1.25,0-1.07-22-45.12-22.07-45.12,0s44,22,45.12,0C771.74,146,770.49,146,770.46,146.79Z"/><path class="cls-24" d="M738.55,137.06c7.16-1,8.35-12.56,8.35-12.56s8.07,11.3,14.21,12.56"/><path class="cls-25" d="M738.71,137.66c5.87-1.19,8.22-7.84,8.81-13.17l-1.16.32c3.57,5,8.43,11.2,14.58,12.85a.63.63,0,0,0,.33-1.21c-5.75-1.55-10.47-7.62-13.83-12.28a.63.63,0,0,0-1.16.32c-.54,4.78-2.65,10.9-7.9,12-.79.16-.45,1.36.33,1.21Z"/><path class="cls-25" d="M738.86,142.94c7.07-3.5,11.71-10.84,8.64-18.61-.29-.74-1.5-.42-1.21.33,2.87,7.28-1.5,13.95-8.07,17.2-.72.36-.09,1.44.63,1.08Z"/><path class="cls-24" d="M758.06,138.41s-8.63-2.61-10.41-10.64"/><path class="cls-25" d="M758.23,137.81a14.78,14.78,0,0,1-10-10.21c-.19-.78-1.4-.45-1.21.33A16.05,16.05,0,0,0,757.9,139c.77.24,1.1-1,.33-1.21Z"/><path class="cls-25" d="M746.6,148.62c1.58-5.66,2.84-11.94,2-17.81-.11-.79-1.32-.46-1.21.33.8,5.64-.49,11.71-2,17.15a.63.63,0,0,0,1.21.33Z"/><circle class="cls-26" cx="756.21" cy="155.31" r="0.43"/><circle class="cls-26" cx="761.11" cy="152.1" r="0.43"/><path class="cls-25" d="M737.63,126.51c6.44-6.79-1.58-16.43,2.47-23.76.39-.7-.69-1.34-1.08-.63-4,7.28,3.81,17.1-2.28,23.51-.55.58.33,1.47.88.88Z"/><path class="cls-25" d="M751.9,112.91a7,7,0,0,0,2.64-3.88c1.07-4.13-3.17-9-.14-12.75.5-.62-.38-1.51-.88-.88-4,4.92,3.24,12.42-2.25,16.43-.64.47,0,1.55.63,1.08Z"/><path class="cls-25" d="M790.22,124.63c6.44-6.79-1.58-16.43,2.47-23.76.39-.7-.69-1.34-1.08-.63-4,7.28,3.81,17.1-2.28,23.51-.55.58.33,1.47.88.88Z"/><path class="cls-25" d="M772.5,114.67a5.9,5.9,0,0,0,2.68-3.4c.89-3.34-3.06-7.39-.18-10.27a.63.63,0,0,0-.88-.88c-4,4,3,10.35-2.25,13.48a.63.63,0,0,0,.63,1.08Z"/><path class="cls-12" d="M725.52,169.75c.24-1.16,3.86-.13,6.54-2.23,3.58-2.8,2.89-9.16,3.53-9.13s-.39,7.12,3.24,9.72c1.92,1.37,4.22.79,4.42,1.73.24,1.11-3,1.71-5.31,4.75-2.53,3.27-2,6.72-3.09,6.77s-1-3.68-4-7.07C728.29,171.34,725.3,170.79,725.52,169.75Z"/><path class="cls-12" d="M786.11,162.52c.17-.81,2.71-.09,4.58-1.56,2.51-2,2-6.41,2.48-6.4s-.27,5,2.27,6.81c1.35,1,3,.55,3.1,1.21s-2.07,1.2-3.72,3.33c-1.77,2.29-1.43,4.71-2.17,4.75s-.7-2.58-2.79-5C788,163.64,786,163.26,786.11,162.52Z"/><path class="cls-12" d="M723.17,117.84c.15-.73,2.44-.08,4.14-1.41,2.27-1.77,1.83-5.79,2.23-5.77s-.25,4.5,2,6.14c1.22.87,2.66.5,2.8,1.09s-1.87,1.08-3.35,3-1.29,4.25-2,4.28-.63-2.33-2.51-4.47C724.92,118.85,723,118.5,723.17,117.84Z"/><rect class="cls-3" x="600.58" y="27.75" width="106.07" height="158.07"/><path class="cls-27" d="M623.52,99.48a34.66,34.66,0,0,1,11.14-4.7c12.36-2.76,22.49,2.5,26.19,4.7v35.27s-20.78,12.93-37.33,1.57Z"/><path class="cls-28" d="M626.41,106.79v25.47s9.49,7.37,19.15,2.68,1.58-13.3,1.58-13.3-7.73-2.46-7.38-5.81S626.41,106.79,626.41,106.79Z"/><ellipse class="cls-29" cx="643.02" cy="101.68" rx="16.6" ry="6.16"/><path class="cls-17" d="M641.41,98.74c-5.07-.58-9.29.27-9.44,1.9s3.84,3.41,8.9,4,9.29-.27,9.44-1.9S646.47,99.31,641.41,98.74Z"/><path class="cls-18" d="M641.41,98.74a22.88,22.88,0,0,0-5.09,0,11.54,11.54,0,0,0-2.46.56,4.17,4.17,0,0,0-1.09.56,1.12,1.12,0,0,0-.55.86,1.3,1.3,0,0,0,.51.89,4.8,4.8,0,0,0,1,.67,13.15,13.15,0,0,0,2.3.9,28.53,28.53,0,0,0,4.91,1,28.2,28.2,0,0,0,5,.15,12.68,12.68,0,0,0,2.44-.38,4.1,4.1,0,0,0,1.09-.46,1.09,1.09,0,0,0,.6-.78,1.31,1.31,0,0,0-.44-1,4.86,4.86,0,0,0-1-.76,12.12,12.12,0,0,0-2.28-1.09A23.11,23.11,0,0,0,641.41,98.74Zm0,0a29,29,0,0,1,5,1,13.59,13.59,0,0,1,2.4.95,5.21,5.21,0,0,1,1.09.75,1.75,1.75,0,0,1,.66,1.27,1.62,1.62,0,0,1-.77,1.25,4.7,4.7,0,0,1-1.21.62,12,12,0,0,1-2.57.58,23.31,23.31,0,0,1-5.2,0,23.6,23.6,0,0,1-5.07-1.15,12.72,12.72,0,0,1-2.38-1.13,5.41,5.41,0,0,1-1.06-.84,1.81,1.81,0,0,1-.59-1.33,1.56,1.56,0,0,1,.82-1.17,4.51,4.51,0,0,1,1.22-.52,13,13,0,0,1,2.54-.4A28.53,28.53,0,0,1,641.41,98.74Z"/><path class="cls-30" d="M650.51,100.62c-2.78-.32-5.12.39-5.23,1.57s2.06,2.4,4.83,2.71,5.12-.39,5.23-1.57S653.29,100.94,650.51,100.62Z"/><path class="cls-31" d="M650.51,100.62a9.1,9.1,0,0,0-2.92.13,4.49,4.49,0,0,0-1.34.52,1.23,1.23,0,0,0-.71,1,1.38,1.38,0,0,0,.68,1,5.22,5.22,0,0,0,1.22.6,11.83,11.83,0,0,0,2.74.62,11.57,11.57,0,0,0,2.8,0,5,5,0,0,0,1.32-.33,1.19,1.19,0,0,0,.8-.8,1.4,1.4,0,0,0-.56-1.09,4.79,4.79,0,0,0-1.2-.79A9.26,9.26,0,0,0,650.51,100.62Zm0,0a12.26,12.26,0,0,1,2.88.65,5.62,5.62,0,0,1,1.34.68,1.79,1.79,0,0,1,.86,1.37,1.74,1.74,0,0,1-1,1.38,5,5,0,0,1-1.48.57,9.57,9.57,0,0,1-3.07.14,9.76,9.76,0,0,1-3-.82,5.37,5.37,0,0,1-1.32-.87,1.91,1.91,0,0,1-.74-1.51A1.62,1.62,0,0,1,646.1,101a5.29,5.29,0,0,1,1.46-.38A11.94,11.94,0,0,1,650.51,100.62Z"/><path class="cls-27" d="M647.63,101.45a34.66,34.66,0,0,1,11.14-4.7c12.36-2.76,22.49,2.5,26.19,4.7v35.27s-20.78,12.93-37.33,1.57Z"/><path class="cls-28" d="M650.53,108.76v25.47s9.49,7.37,19.15,2.68,1.58-13.3,1.58-13.3-7.73-2.46-7.38-5.81S650.53,108.76,650.53,108.76Z"/><ellipse class="cls-29" cx="667.13" cy="103.65" rx="16.6" ry="6.16"/><path class="cls-17" d="M665.52,100.7c-5.07-.58-9.29.27-9.44,1.9s3.84,3.41,8.9,4,9.29-.27,9.44-1.9S670.58,101.28,665.52,100.7Z"/><path class="cls-18" d="M665.52,100.7a22.88,22.88,0,0,0-5.09,0,11.55,11.55,0,0,0-2.46.56,4.17,4.17,0,0,0-1.09.56,1.12,1.12,0,0,0-.55.86,1.3,1.3,0,0,0,.51.89,4.8,4.8,0,0,0,1,.67,13.15,13.15,0,0,0,2.3.9,28.53,28.53,0,0,0,4.91,1,28.2,28.2,0,0,0,5,.15,12.68,12.68,0,0,0,2.44-.38,4.1,4.1,0,0,0,1.09-.46,1.09,1.09,0,0,0,.6-.78,1.31,1.31,0,0,0-.44-1,4.86,4.86,0,0,0-1-.76,12.12,12.12,0,0,0-2.28-1.09A23.11,23.11,0,0,0,665.52,100.7Zm0,0a29,29,0,0,1,5,1,13.59,13.59,0,0,1,2.4.95,5.21,5.21,0,0,1,1.09.75,1.75,1.75,0,0,1,.66,1.27,1.62,1.62,0,0,1-.77,1.25,4.7,4.7,0,0,1-1.21.62,12,12,0,0,1-2.57.58,23.31,23.31,0,0,1-5.2,0,23.6,23.6,0,0,1-5.07-1.15,12.72,12.72,0,0,1-2.38-1.13,5.41,5.41,0,0,1-1.06-.84,1.81,1.81,0,0,1-.59-1.33,1.56,1.56,0,0,1,.82-1.17,4.51,4.51,0,0,1,1.22-.52,13,13,0,0,1,2.54-.4A28.53,28.53,0,0,1,665.52,100.7Z"/><path class="cls-30" d="M674.62,102.59c-2.78-.32-5.12.39-5.23,1.57s2.06,2.4,4.83,2.71,5.12-.39,5.23-1.57S677.4,102.91,674.62,102.59Z"/><path class="cls-31" d="M674.62,102.59a9.1,9.1,0,0,0-2.92.13,4.49,4.49,0,0,0-1.34.52,1.23,1.23,0,0,0-.71,1,1.38,1.38,0,0,0,.68,1,5.22,5.22,0,0,0,1.22.6,11.83,11.83,0,0,0,2.74.62,11.57,11.57,0,0,0,2.8,0,5,5,0,0,0,1.32-.33,1.19,1.19,0,0,0,.8-.8,1.4,1.4,0,0,0-.56-1.09,4.79,4.79,0,0,0-1.2-.79A9.26,9.26,0,0,0,674.62,102.59Zm0,0a12.26,12.26,0,0,1,2.88.65,5.62,5.62,0,0,1,1.34.68,1.79,1.79,0,0,1,.86,1.37,1.74,1.74,0,0,1-1,1.38,5,5,0,0,1-1.48.57,9.57,9.57,0,0,1-3.07.14,9.76,9.76,0,0,1-3-.82,5.37,5.37,0,0,1-1.32-.87,1.91,1.91,0,0,1-.74-1.51,1.62,1.62,0,0,1,1.07-1.21,5.29,5.29,0,0,1,1.46-.38A11.94,11.94,0,0,1,674.62,102.59Z"/><path class="cls-27" d="M631.86,118.49a34.66,34.66,0,0,1,11.14-4.7c12.36-2.76,22.49,2.5,26.19,4.7v35.27s-20.78,12.93-37.33,1.57Z"/><path class="cls-28" d="M634.75,125.8v25.47s9.49,7.37,19.15,2.68,1.58-13.3,1.58-13.3-7.73-2.46-7.38-5.81S634.75,125.8,634.75,125.8Z"/><ellipse class="cls-29" cx="651.36" cy="120.69" rx="16.6" ry="6.16"/><path class="cls-17" d="M649.75,117.75c-5.07-.58-9.29.27-9.44,1.9s3.84,3.41,8.9,4,9.29-.27,9.44-1.9S654.81,118.32,649.75,117.75Z"/><path class="cls-18" d="M649.75,117.75a22.88,22.88,0,0,0-5.09,0,11.54,11.54,0,0,0-2.46.56,4.17,4.17,0,0,0-1.09.56,1.12,1.12,0,0,0-.55.86,1.3,1.3,0,0,0,.51.89,4.8,4.8,0,0,0,1,.67,13.15,13.15,0,0,0,2.3.9,28.53,28.53,0,0,0,4.91,1,28.2,28.2,0,0,0,5,.15,12.68,12.68,0,0,0,2.44-.38,4.1,4.1,0,0,0,1.09-.46,1.09,1.09,0,0,0,.6-.78,1.31,1.31,0,0,0-.44-1,4.86,4.86,0,0,0-1-.76,12.12,12.12,0,0,0-2.28-1.09A23.11,23.11,0,0,0,649.75,117.75Zm0,0a29,29,0,0,1,5,1,13.59,13.59,0,0,1,2.4.95,5.21,5.21,0,0,1,1.09.75,1.75,1.75,0,0,1,.66,1.27,1.62,1.62,0,0,1-.77,1.25,4.7,4.7,0,0,1-1.21.62,12,12,0,0,1-2.57.58,23.31,23.31,0,0,1-5.2,0,23.6,23.6,0,0,1-5.07-1.15,12.72,12.72,0,0,1-2.38-1.13,5.41,5.41,0,0,1-1.06-.84,1.81,1.81,0,0,1-.59-1.33,1.56,1.56,0,0,1,.82-1.17,4.51,4.51,0,0,1,1.22-.52,13,13,0,0,1,2.54-.4A28.53,28.53,0,0,1,649.75,117.75Z"/><path class="cls-30" d="M658.85,119.64c-2.78-.32-5.12.39-5.23,1.57s2.06,2.4,4.83,2.71,5.12-.39,5.23-1.57S661.63,120,658.85,119.64Z"/><path class="cls-31" d="M658.85,119.64a9.1,9.1,0,0,0-2.92.13,4.49,4.49,0,0,0-1.34.52,1.23,1.23,0,0,0-.71,1,1.38,1.38,0,0,0,.68,1,5.22,5.22,0,0,0,1.22.6,11.83,11.83,0,0,0,2.74.62,11.57,11.57,0,0,0,2.8,0,5,5,0,0,0,1.32-.33,1.19,1.19,0,0,0,.8-.8,1.4,1.4,0,0,0-.56-1.09,4.79,4.79,0,0,0-1.2-.79A9.26,9.26,0,0,0,658.85,119.64Zm0,0a12.26,12.26,0,0,1,2.88.65,5.62,5.62,0,0,1,1.34.68,1.79,1.79,0,0,1,.86,1.37,1.74,1.74,0,0,1-1,1.38,5,5,0,0,1-1.48.57,9.57,9.57,0,0,1-3.07.14,9.76,9.76,0,0,1-3-.82,5.37,5.37,0,0,1-1.32-.87,1.91,1.91,0,0,1-.74-1.51,1.62,1.62,0,0,1,1.07-1.21,5.29,5.29,0,0,1,1.46-.38A11.94,11.94,0,0,1,658.85,119.64Z"/><rect class="cls-8" x="612.8" y="43.24" width="81.64" height="40.56" rx="8.21" ry="8.21"/><text class="cls-32" transform="translate(627.93 69.43)"><tspan class="cls-33">ジ</tspan><tspan class="cls-34" x="11.93" y="0">ェ</tspan><tspan class="cls-35" x="23.16" y="0">ド</tspan><tspan x="36.92" y="0">ル</tspan></text><path class="cls-12" d="M612.88,155.39c.24-1.16,3.86-.13,6.54-2.23,3.58-2.8,2.89-9.16,3.53-9.13s-.39,7.12,3.24,9.72c1.92,1.37,4.22.79,4.42,1.73.24,1.11-3,1.71-5.31,4.75-2.53,3.27-2,6.72-3.09,6.77s-1-3.68-4-7.07C615.65,157,612.66,156.44,612.88,155.39Z"/><path class="cls-12" d="M681.7,98.48c.15-.73,2.44-.08,4.14-1.41,2.27-1.77,1.83-5.79,2.23-5.77s-.25,4.5,2,6.14c1.22.87,2.66.5,2.8,1.09s-1.87,1.08-3.35,3-1.29,4.25-2,4.28-.63-2.33-2.51-4.47C683.45,99.48,681.56,99.14,681.7,98.48Z"/><path class="cls-12" d="M672.82,152.34c.17-.81,2.71-.09,4.58-1.56,2.51-2,2-6.41,2.48-6.4s-.27,5,2.27,6.81c1.35,1,3,.55,3.1,1.21s-2.07,1.2-3.72,3.33c-1.77,2.29-1.43,4.71-2.17,4.75s-.7-2.58-2.79-5C674.76,153.45,672.66,153.07,672.82,152.34Z"/></g><g id="Layer_8" data-name="Layer 8"><path class="cls-36" d="M78.75,32.83l61.41,7.33s46,51.53-10.47,87.75l-61.41-7.33S19.68,76.42,78.75,32.83Z"/><path class="cls-37" d="M127.65,38.67,129.41,24,91.92,19.51,90.17,34.19c-47.88,37.09-10.47,87.75-10.47,87.75l-1.28,10.73,37.49,4.47,1.28-10.73S162.06,89.63,127.65,38.67Z"/><line class="cls-37" x1="78.41" y1="132.67" x2="76.4" y2="149.54"/><line class="cls-37" x1="113.89" y1="154.01" x2="115.9" y2="137.15"/><line class="cls-37" x1="95.32" y1="151.8" x2="97.33" y2="134.93"/><line class="cls-37" x1="85.68" y1="142.09" x2="86.69" y2="133.66"/><line class="cls-37" x1="105.67" y1="135.93" x2="104.67" y2="144.36"/><line class="cls-37" x1="110.19" y1="25.74" x2="91.44" y2="23.5"/><line class="cls-37" x1="90.76" y1="29.27" x2="118.02" y2="32.52"/><path class="cls-37" d="M90.89,123.28s-25.21-51.46,8.65-88"/><path class="cls-37" d="M107,125.2s34-45.29,10.47-87.75"/><line class="cls-37" x1="110.84" y1="21.77" x2="112.37" y2="8.9"/><ellipse class="cls-37" cx="112.87" cy="4.72" rx="4.21" ry="4.62" transform="translate(94.81 116.23) rotate(-83.19)"/><path class="cls-37" d="M127.65,38.67,90.17,34.19Z"/><path class="cls-37" d="M117.18,126.42l-37.49-4.47Z"/><text class="cls-38" transform="translate(90.72 87.46) rotate(6.81) scale(1.1 1)">サ</text><line class="cls-37" x1="391.64" y1="21.7" x2="389.31" y2="10.08"/><ellipse class="cls-37" cx="388.56" cy="6.31" rx="4.22" ry="3.85" transform="translate(6.33 76.44) rotate(-11.33)"/><path class="cls-36" d="M366.92,40.44l55.43-11.1S477,61,438.21,108.54l-55.43,11.1S328,95.1,366.92,40.44Z"/><path class="cls-37" d="M411.06,31.6,408.4,18.34l-33.83,6.78,2.66,13.25c-31,45.84,15.87,79.2,15.87,79.2l1.94,9.69,33.83-6.78-1.94-9.69S455.44,66.07,411.06,31.6Z"/><line class="cls-37" x1="395.03" y1="127.26" x2="398.08" y2="142.48"/><line class="cls-37" x1="431.91" y1="135.7" x2="428.86" y2="120.48"/><line class="cls-37" x1="415.15" y1="139.06" x2="412.1" y2="123.84"/><line class="cls-37" x1="404.02" y1="133.37" x2="402.5" y2="125.76"/><line class="cls-37" x1="419.63" y1="122.33" x2="421.16" y2="129.94"/><line class="cls-37" x1="392.21" y1="25.33" x2="375.29" y2="28.72"/><line class="cls-37" x1="376.33" y1="33.93" x2="400.94" y2="29"/><path class="cls-37" d="M403.19,115.55S366.65,78,385.68,36.68"/><path class="cls-37" d="M417.69,112.64s16.69-49-15.87-79.2"/><path class="cls-37" d="M411.06,31.6l-33.83,6.78Z"/><path class="cls-37" d="M426.92,110.8l-33.83,6.78Z"/><text class="cls-39" transform="translate(392.83 84.49) rotate(-11.33) scale(1.1 1)">サ</text></g><g id="Layer_34" data-name="Layer 34"><rect class="cls-40" x="709.94" y="348.21" width="17.08" height="37.69" rx="7.75" ry="7.75" transform="translate(295.12 -319.76) rotate(31.29)"/><path class="cls-41" d="M718.26,351l41.51-68.3c3.2,1.26,6.41,7.26,9,13.66a163.7,163.7,0,0,1,5.81,17.41s-18.19,32.66-26,37.35l-13.72,5.45S722.37,344.21,718.26,351Z"/><ellipse class="cls-42" cx="762.68" cy="310.77" rx="3.45" ry="3.65" transform="translate(101.01 801.13) rotate(-58.71)"/><path class="cls-43" d="M718.26,351s.22,16.08,10,16.49c0,0-15.1,2.24-18.44-2.54l12.5,12.32"/><path class="cls-44" d="M759.49,290.67l-32.9,54.14s7.28,2.06,8.13,4.94l23.92-32.33s-9.46-7.72,3.29-18.09Z"/><rect class="cls-45" x="661.98" y="387.96" width="17.64" height="70.64" rx="8.51" ry="8.51"/><path class="cls-46" d="M662.88,368.24c-2.39,10.39-7.63,35.32-8.51,57.55-.17,4.32.75,8.44,2.28,10.25,4.49,5.33,14.94,13.84,28.2-.57,1.57-1.71,2.55-5.87,2.39-10.28-.29-8.34-1.55-24.84-6-55.35-.58-3.95-2-6.56-3.67-6.56H666.25C664.87,363.27,663.59,365.15,662.88,368.24Z"/><rect class="cls-45" x="629.08" y="387.96" width="17.64" height="70.64" rx="8.51" ry="8.51"/><path class="cls-46" d="M630,368.24c-2.39,10.39-7.63,35.32-8.51,57.55-.17,4.32.75,8.44,2.28,10.25,4.49,5.33,14.94,13.84,28.2-.57,1.57-1.71,2.55-5.87,2.39-10.28-.29-8.34-1.55-24.84-6-55.35-.58-3.95-2-6.56-3.67-6.56H633.35C632,363.27,630.69,365.15,630,368.24Z"/><path class="cls-47" d="M594.07,385.6h0a8.06,8.06,0,0,1-4.34-11l24.08-49.18a9.07,9.07,0,0,1,11.7-4.07h0a8.06,8.06,0,0,1,4.34,11l-24.08,49.18A9.07,9.07,0,0,1,594.07,385.6Z"/><path class="cls-47" d="M719.29,381.52h0a8.06,8.06,0,0,0,4.34-11l-24.08-49.18a9.07,9.07,0,0,0-11.7-4.07h0a8.06,8.06,0,0,0-4.34,11l24.08,49.18A9.07,9.07,0,0,0,719.29,381.52Z"/><path class="cls-48" d="M631.56,316.2c-6.88,9.92-22,33.71-24.49,54.93-.49,4.13,2.17,8.06,6.55,9.78,12.93,5.09,43,13.21,81.12-.54,4.52-1.63,7.32-5.6,6.89-9.82-.82-8-4.45-23.71-17.4-52.83-1.68-3.77-5.87-6.26-10.55-6.26H641.26A11.76,11.76,0,0,0,631.56,316.2Z"/><path class="cls-49" d="M624.77,323.33a3,3,0,0,1,4.11-1.55c2.6,1.28,6.42,2.9,9,2.83a3,3,0,0,1,3,3.64c-.64,3.09.55,4.74.92,7.09.67,4.26,5.07,8.58,9.84,9.39,6.64,1.14,13.67-4.58,14.56-9.67.37-2.12,2-4.27,1.18-8.09a3,3,0,0,1,1.85-3.36l12.16-4.78a3,3,0,0,1,3.9,1.73c5.52,14.76,29.8,82.78,16.66,102.31a2.89,2.89,0,0,1-.75.75c-3.79,2.64-31.15,19.53-92.89,5.55a3,3,0,0,1-2-1.62C603.52,421.73,595.39,395.47,624.77,323.33Z"/><path class="cls-50" d="M607.08,371.13s51,22.73,94.55-.58c0,0,6.06,44.43.34,52.32,0,0-30.86,20.42-93.65,6.3C608.32,429.17,595.15,431.43,607.08,371.13Z"/><path class="cls-47" d="M733.22,254.68c2.67,23.35-10.15,41.15-11.82,43.43-19.11,26-53.29,26.31-67.78,26.47-15.14.16-38,.41-57.16-16.72C595,306.54,571.69,285,574,254.68c2.8-36.52,41-65,78.42-65.5C692.05,188.64,729.2,219.53,733.22,254.68Z"/><path class="cls-25" d="M666.72,256.64q1.18,2.31,2.23,4.66c.72,1.56,1.38,3.14,2.06,4.72l-1.31-.58,5-2.41,5-2.3c3.37-1.47,6.73-2.95,10.14-4.3s6.85-2.67,10.31-3.9,7-2.38,10.55-3.33c-3.18,1.9-6.46,3.59-9.75,5.24s-6.63,3.17-10,4.67-6.76,2.88-10.16,4.27l-5.14,2-5.19,1.88-1.05.38-.26-1c-.44-1.66-.9-3.31-1.3-5S667,258.33,666.72,256.64Z"/><path class="cls-25" d="M647.25,256c-.36,1.8-.75,3.6-1.2,5.37s-.91,3.55-1.37,5.32l-.26,1-1.07-.4-5.42-2-5.37-2.14-5.33-2.24-5.29-2.34q-5.27-2.38-10.45-5c-3.44-1.75-6.87-3.54-10.2-5.54,3.74,1.06,7.39,2.33,11,3.64s7.21,2.74,10.78,4.21l5.33,2.25,5.28,2.35,5.24,2.44,5.19,2.55-1.34.59c.7-1.69,1.39-3.38,2.14-5.05S646.44,257.62,647.25,256Z"/><line class="cls-51" x1="590.77" y1="238.23" x2="592.14" y2="303.35"/><path class="cls-44" d="M642.87,304.38s16.88-5.51,23.84,0"/><path class="cls-25" d="M642.87,304.38a18.73,18.73,0,0,1,5.65-3,24.54,24.54,0,0,1,6.25-1.31,18.81,18.81,0,0,1,6.51.59,9.08,9.08,0,0,1,5.43,3.76,21.5,21.5,0,0,0-5.9-.65c-1.91,0-3.81.15-5.76.29s-3.91.29-5.92.39A47.94,47.94,0,0,1,642.87,304.38Z"/><path class="cls-25" d="M653.25,288.85a10,10,0,0,0-3.19,1.34,11.1,11.1,0,0,0-1.33,1c-.37.41-.8.72-1.13,1.15a17.36,17.36,0,0,0-3.13,5.63,12.56,12.56,0,0,0-.51,1.59c-.16.54-.36,1.06-.48,1.62-.22,1.12-.58,2.21-.77,3.35-.11.57-.21,1.14-.34,1.71s-.28,1.15-.35,1.73c-.22,1.17-.43,2.34-.77,3.53a34.07,34.07,0,0,1-.7-3.59,31.55,31.55,0,0,1-.18-3.66,11.82,11.82,0,0,1,.11-1.84c.06-.61.14-1.23.22-1.84s.28-1.22.41-1.83a15.58,15.58,0,0,1,4.9-8.14,4.77,4.77,0,0,1,.81-.56c.28-.17.56-.35.85-.5a11.35,11.35,0,0,1,1.84-.67A7,7,0,0,1,653.25,288.85Z"/><path class="cls-25" d="M656,288.85a7,7,0,0,1,3.75,0,11.36,11.36,0,0,1,1.84.67c.29.15.56.33.85.5a4.77,4.77,0,0,1,.81.56,15.58,15.58,0,0,1,4.9,8.14c.13.61.34,1.21.41,1.83s.16,1.23.22,1.84a11.82,11.82,0,0,1,.11,1.84,31.57,31.57,0,0,1-.18,3.66,34.07,34.07,0,0,1-.7,3.59c-.35-1.19-.55-2.37-.77-3.53-.07-.59-.22-1.16-.35-1.73s-.24-1.14-.34-1.71c-.19-1.14-.55-2.23-.77-3.35-.12-.56-.32-1.08-.48-1.62a12.55,12.55,0,0,0-.51-1.59,17.36,17.36,0,0,0-3.13-5.63c-.33-.43-.76-.74-1.13-1.15a11.1,11.1,0,0,0-1.33-1A10,10,0,0,0,656,288.85Z"/><path class="cls-52" d="M627.38,327.2s-13,35.59-11.61,39.27,34.79,14.44,50.1,8.9c0,0,4-31,.84-30.18s-15.74,11.55-22.89,4.52-8.9-15.54-8.32-18.83C635.5,330.88,634.34,325.08,627.38,327.2Z"/><path class="cls-53" d="M611.9,379.44s-5.22,38.11-.77,42.95c0,0,31.73,11.41,46.43,5.8,0,0,9.57-23.33,1.21-39.72C658.76,388.47,629.89,379.24,611.9,379.44Z"/><path class="cls-54" d="M606.48,205.72a57.94,57.94,0,0,0-13.7,9.53c-14.55,13.64-17.85,31.15-18.76,38.13-.25,4.47-1.33,31.26,18.9,50.81a62.27,62.27,0,0,0,28.46,15.5,57.5,57.5,0,0,1-9.35-8.6c-14.86-17.08-15.3-38.42-15.6-52.94A130,130,0,0,1,606.48,205.72Z"/><path class="cls-55" d="M573.92,242.38s-4.27-12.56,0-17.58c0,0,70.83-35.79,154.35-5v15.62S634.95,202.82,573.92,242.38Z"/><circle class="cls-56" cx="653.69" cy="214.74" r="6.57" transform="translate(-8.1 26.42) rotate(-2.3)"/><path class="cls-57" d="M710.55,238.23s.24,7-8.26,7"/><path class="cls-57" d="M713.56,238.91s-.32,6.95,10.82,6.95"/><path class="cls-57" d="M710.54,257.45s.25-8.27-8.55-8.27"/><path class="cls-57" d="M713.88,257.45s-.3-8.27,10.18-8.27"/><path class="cls-58" d="M652.53,328.37a2.9,2.9,0,0,0-2,1.72,2.42,2.42,0,0,0,.19,2.25,1.83,1.83,0,0,0,2.06.7c.27-.1.55-.35.48-.64a.61.61,0,0,0-.47-.41,1.85,1.85,0,0,0-2.07,1.56,4.57,4.57,0,0,0,.61,2.79,20.29,20.29,0,0,0,1.82,3c.32.44.78.92,1.31.81"/></g><g id="Layer_3" data-name="Layer 3"><rect class="cls-59" x="502.94" y="372.17" width="300.24" height="203.21"/><rect class="cls-60" x="502.94" y="342.98" width="300.24" height="29.2"/></g><g id="Layer_4" data-name="Layer 4"><rect class="cls-61" x="577.44" y="398.15" width="151.25" height="151.25" rx="75.63" ry="75.63"/><rect class="cls-62" x="588.81" y="411.03" width="128.51" height="128.51" rx="64.25" ry="64.25"/><text></text></g><g id="Layer_5" data-name="Layer 5"><text class="cls-63" transform="translate(616.28 501.17)">陽</text></g></svg>
